<svg width="110" height="110" viewBox="0 0 110 110" fill="none" xmlns="http://www.w3.org/2000/svg">
<circle cx="55" cy="55" r="52.5" fill="#F50057" stroke="url(#paint0_linear)" stroke-width="5"/>
<g clip-path="url(#clip0)">
<path d="M79.3559 31.661C71.8355 24.1409 59.6428 24.141 52.1226 31.6613C44.6024 39.1816 44.6024 51.3743 52.1226 58.8946C59.6428 66.4149 71.8355 66.415 79.3559 58.8949C82.9696 55.2847 85.0001 50.3861 85.0001 45.278C85.0001 40.1699 82.9696 35.2712 79.3559 31.661V31.661ZM80.8955 46.0946L80.082 45.281L80.8955 44.4675C80.9249 45.0094 80.9249 45.5526 80.8955 46.0946ZM78.9572 52.7627L75.7793 49.5837L78.642 46.721L80.5498 48.6288C80.2242 50.0773 79.6876 51.4701 78.9572 52.7627V52.7627ZM69.0847 60.0848L67.1769 58.177L70.0396 55.3132L73.2186 58.4922C71.926 59.2226 70.5332 59.7591 69.0847 60.0848V60.0848ZM65.7389 56.739L62.8762 53.8814L65.7389 51.0176L68.6016 53.8814L65.7389 56.739ZM58.2603 58.4922L61.4382 55.3142L64.301 58.177L62.3932 60.0848C60.945 59.7611 59.5524 59.2258 58.2603 58.4963V58.4922ZM50.9321 48.6237L52.8399 46.7159L55.7026 49.5787L52.5247 52.7566C51.7933 51.4649 51.2567 50.0722 50.9321 48.6237V48.6237ZM50.5864 44.4614L51.3999 45.2749L50.5864 46.0885C50.5557 45.5466 50.5544 45.0034 50.5823 44.4614H50.5864ZM52.5247 37.7983L55.7037 40.9773L52.8399 43.84L50.9321 41.9322C51.2565 40.4839 51.7917 39.0911 52.5206 37.7983H52.5247ZM54.2779 45.278L57.1355 42.4153L59.9982 45.278L57.1355 48.1407L54.2779 45.278ZM62.3932 30.4671L64.301 32.3749L61.4382 35.2387L58.2593 32.0597C59.5518 31.3293 60.9447 30.7928 62.3932 30.4671V30.4671ZM65.7389 33.8129L68.6016 36.6756L65.7389 39.5424L62.8762 36.6797L65.7389 33.8129ZM73.2176 32.0597L70.0396 35.2376L67.1769 32.3749L69.0847 30.4671C70.5329 30.7926 71.9254 31.3292 73.2176 32.0597V32.0597ZM76.4881 34.5288C76.9626 35.0117 77.4042 35.5257 77.8101 36.0675L74.3413 39.5424L71.4745 36.6756L74.9464 33.2037C75.4893 33.6105 76.0044 34.0532 76.4881 34.5288V34.5288ZM80.5498 41.9322L78.642 43.84L75.7793 40.9773L78.9572 37.7993C79.6882 39.0913 80.2248 40.4839 80.5498 41.9322V41.9322ZM67.1769 40.9773L70.0396 38.1187L72.8982 40.9773L70.0355 43.84L67.1769 40.9773ZM68.6006 45.278L65.7389 48.1407L62.8762 45.278L65.7389 42.4153L68.6006 45.278ZM64.2999 40.9773L61.4372 43.84L58.5745 40.9773L61.4382 38.1187L64.2999 40.9773ZM61.4372 46.7159L64.2999 49.5787L61.4372 52.4414L58.5745 49.5787L61.4372 46.7159ZM67.1759 49.5787L70.0386 46.7159L72.8982 49.5787L70.0355 52.4414L67.1759 49.5787ZM71.4745 45.278L74.3382 42.4153L77.201 45.278L74.3372 48.1407L71.4745 45.278ZM66.5525 30.1254L65.7389 30.939L64.9254 30.1254C65.4683 30.0947 66.0125 30.0933 66.5555 30.1214L66.5525 30.1254ZM56.5254 33.2037L59.9982 36.6766L57.1355 39.5424L53.6626 36.0695C54.4697 34.9777 55.4345 34.012 56.5254 33.2037V33.2037ZM53.6647 54.4915L57.1355 51.0166L60.0003 53.8814L56.5254 57.3522C55.435 56.546 54.4709 55.5819 53.6647 54.4915ZM64.9223 60.4376L65.7359 59.6241L66.5494 60.4376C66.0074 60.4659 65.4642 60.4649 64.9223 60.4346V60.4376ZM74.9505 57.3553L71.4745 53.8814L74.3372 51.0187L77.8132 54.4915C77.0059 55.5822 76.0411 56.547 74.9505 57.3542V57.3553Z" fill="black"/>
<path d="M52.183 61.7018L44.7389 69.1458L41.8711 66.278L49.3152 58.834C49.7423 59.3526 50.1999 59.8509 50.6779 60.3289C51.1558 60.8069 51.6643 61.2747 52.183 61.7018Z" fill="black"/>
<path d="M27.7457 78.9696L32.0474 83.2713L30.6135 84.7052C30.2169 85.0994 29.5763 85.0994 29.1796 84.7052L26.3118 81.8374C25.9175 81.4407 25.9175 80.8001 26.3118 80.4035L27.7457 78.9696Z" fill="black"/>
<path d="M29.173 77.5317L30.6068 76.0978L34.9084 80.3994L33.4746 81.8333L29.173 77.5317Z" fill="black"/>
<path d="M32.0419 74.6644L33.4757 73.2305L37.7773 77.5321L36.3435 78.966L32.0419 74.6644Z" fill="black"/>
<path d="M34.9097 71.7972L36.3435 70.3634L40.6451 74.665L39.2113 76.0988L34.9097 71.7972Z" fill="black"/>
<path d="M43.5186 71.8L42.0847 73.2339L37.783 68.9323L39.2169 67.4984C39.6135 67.1041 40.2541 67.1041 40.6508 67.4984L43.5186 70.3661C43.9128 70.7628 43.9128 71.4034 43.5186 71.8Z" fill="black"/>
<path d="M43.0433 33.873C43.6274 33.0338 43.7606 31.9607 43.3993 31.0042C43.0334 30.0215 42.2132 29.2775 41.1996 29.009L32.9745 26.8195L31.3738 25.7181C29.5221 24.4443 26.9883 24.9128 25.7145 26.7646C24.4407 28.6163 24.9092 31.1501 26.761 32.4239L28.3626 33.5212L33.3457 40.4222C33.9511 41.2624 34.9227 41.7612 35.9582 41.7635H35.9949C37.0171 41.7601 37.972 41.253 38.5474 40.4079C38.6244 40.2842 38.6924 40.1551 38.7508 40.0215C38.881 40.0337 39.0101 40.0561 39.1393 40.0561C40.5408 40.0519 41.8408 39.3239 42.5768 38.1311C43.3128 36.9384 43.3804 35.45 42.7555 34.1954C42.8589 34.0948 42.955 33.9871 43.0433 33.873V33.873ZM40.7959 37.1405C40.3974 37.7231 39.7228 38.0542 39.0182 38.013C38.8772 37.3 38.4982 36.6561 37.9433 36.1866C37.5128 35.8255 36.8711 35.8817 36.5099 36.3122C36.1488 36.7427 36.205 37.3844 36.6355 37.7456C36.9379 37.9899 37.0957 38.3709 37.0545 38.7574C37.0385 38.9372 36.9757 39.1097 36.8725 39.2578C36.6686 39.5554 36.3312 39.7335 35.9704 39.7337C35.5819 39.7414 35.2151 39.5544 34.9932 39.2354L30.2755 32.6964L32.8871 28.9001L40.6769 30.9747C41.0524 31.0707 41.3566 31.3453 41.4904 31.709C41.6184 32.0459 41.5724 32.4243 41.3674 32.7208C41.2635 32.8739 41.1206 32.9964 40.9535 33.0757C40.6091 33.2462 40.2023 33.2332 39.8694 33.0412C39.5515 32.8566 39.1587 32.858 38.8421 33.0449C38.5255 33.2317 38.3343 33.5749 38.3422 33.9424C38.35 34.3099 38.5556 34.6446 38.8799 34.8178C39.5071 35.1908 40.2509 35.3163 40.9657 35.1696C41.2594 35.8108 41.1949 36.559 40.7959 37.1405V37.1405Z" fill="black"/>
</g>
<defs>
<linearGradient id="paint0_linear" x1="5" y1="5" x2="105" y2="105" gradientUnits="userSpaceOnUse">
<stop stop-color="#FF4D00"/>
<stop offset="1" stop-color="#EE0930"/>
</linearGradient>
<clipPath id="clip0">
<rect width="60" height="60" fill="white" transform="translate(25 25)"/>
</clipPath>
</defs>
</svg>
