<svg width="110" height="110" viewBox="0 0 110 110" fill="none" xmlns="http://www.w3.org/2000/svg">
<circle cx="55" cy="55" r="52.5" fill="#FF9100" stroke="url(#paint0_linear)" stroke-width="5"/>
<g clip-path="url(#clip0)">
<path d="M60.6779 43.5038C55.7202 37.3322 52.4386 29.7604 51.5294 21.4847C51.4323 20.6005 50.6095 19.979 49.7302 20.1112C43.788 21.0044 38.3287 23.3892 33.7437 26.8693C32.9828 27.447 32.9065 28.5642 33.582 29.2397L54.149 49.8068C54.764 50.422 55.7612 50.422 56.3762 49.8069L60.5711 45.612C61.1424 45.0409 61.1839 44.1338 60.6779 43.5038Z" fill="black"/>
<path d="M38.9144 64.635C33.9997 61.3033 28.1743 59.2189 21.8961 58.8402C20.8934 58.7797 20.0866 59.67 20.2498 60.6615C21.221 66.5615 23.6633 71.972 27.1876 76.502C27.7674 77.2475 28.8731 77.3106 29.5411 76.6427L39.1361 67.0477C39.8322 66.3508 39.7296 65.1876 38.9144 64.635Z" fill="black"/>
<path d="M49.7947 54.1614L29.2372 33.6039C28.5621 32.9288 27.4429 33.0025 26.868 33.7647C23.184 38.6477 20.7415 44.5162 20.0116 50.8982C19.9081 51.8034 20.5905 52.6153 21.5009 52.6529C29.8096 52.9959 37.4761 55.8686 43.7504 60.5186C44.3804 60.9857 45.2549 60.9285 45.8095 60.3739L49.7948 56.3885C50.4096 55.7736 50.4096 54.7764 49.7947 54.1614Z" fill="black"/>
<path d="M76.5586 27.1246C71.7257 23.3655 65.8909 20.8369 59.5287 20.0132C58.5058 19.881 57.6309 20.7628 57.7712 21.7847C58.6411 28.1226 61.1407 33.9478 64.8329 38.8229C65.4089 39.5834 66.5265 39.6567 67.2012 38.982L76.7023 29.4809C77.3712 28.812 77.3056 27.7055 76.5586 27.1246Z" fill="black"/>
<path d="M89.9899 51.1801C89.3161 44.8338 86.9483 38.9863 83.3494 34.0978C82.7792 33.3231 81.6497 33.2425 80.9696 33.9226L71.5222 43.37C70.8522 44.0401 70.9185 45.1483 71.668 45.728C76.3929 49.383 82.0328 51.9087 88.1808 52.8964C89.1982 53.0597 90.0986 52.2048 89.9899 51.1801Z" fill="black"/>
<path d="M88.3333 59.1421C80.3173 58.0749 72.9967 54.7777 67.0179 49.8955C66.3879 49.3806 65.4738 49.4181 64.8986 49.9932L60.7304 54.1615C60.1154 54.7765 60.1154 55.7737 60.7304 56.3886L80.6677 76.3261C81.3424 77.0008 82.4592 76.9267 83.0363 76.1668C86.3622 71.7857 88.6878 66.6057 89.6674 60.9692C89.8197 60.0933 89.2146 59.2593 88.3333 59.1421Z" fill="black"/>
<path d="M53.6166 88.2122C52.7336 81.8057 50.0657 75.9613 46.1316 71.1987C45.5402 70.4826 44.4593 70.4327 43.8026 71.0894L33.9831 80.9089C33.3023 81.5897 33.3843 82.7193 34.1596 83.2902C39.2241 87.018 45.3181 89.4232 51.9293 89.9942C52.9298 90.0806 53.7538 89.207 53.6166 88.2122Z" fill="black"/>
<path d="M76.304 80.6705L56.3764 60.7429C55.7612 60.1279 54.764 60.1279 54.149 60.7429L50.4028 64.4891C49.8174 65.0745 49.7925 66.009 50.3331 66.6362C55.4373 72.5589 58.8516 79.9768 59.8165 88.135C59.9237 89.0402 60.7854 89.6593 61.6804 89.486C67.0287 88.4519 71.9493 86.204 76.143 83.0402C76.9053 82.4649 76.9794 81.3459 76.304 80.6705Z" fill="black"/>
</g>
<defs>
<linearGradient id="paint0_linear" x1="5" y1="5" x2="105" y2="105" gradientUnits="userSpaceOnUse">
<stop stop-color="#FF4D00"/>
<stop offset="1" stop-color="#EE0930"/>
</linearGradient>
<clipPath id="clip0">
<rect width="70" height="70" fill="white" transform="translate(20 20)"/>
</clipPath>
</defs>
</svg>
