<svg width="110" height="110" viewBox="0 0 110 110" fill="none" xmlns="http://www.w3.org/2000/svg">
<circle cx="55" cy="55" r="52.5" fill="#4CAF50" stroke="url(#paint0_linear)" stroke-width="5"/>
<path d="M80.7279 48.237C78.6147 48.237 76.6095 48.7022 74.8036 49.5298L68.0216 39.6453H73.4217C74.9201 39.6453 76.1349 38.4304 76.1349 36.9321C76.1349 35.4336 74.9201 34.2189 73.4217 34.2189H62.8821C61.3836 34.2189 60.1689 35.4337 60.1689 36.9321C60.1689 37.5166 60.3556 38.0566 60.6699 38.4996C60.7106 38.5725 60.7541 38.6446 60.8023 38.715L65.2762 45.2355C65.1324 45.376 65.0006 45.5328 64.8871 45.709L54.6196 61.6695L42.3712 43.8176H43.9521C45.4505 43.8176 46.6653 42.6027 46.6653 41.1044C46.6653 39.606 45.4505 38.3912 43.9521 38.3912H33.4126C31.9143 38.3912 30.6994 39.606 30.6994 41.1044C30.6994 42.6029 31.9143 43.8176 33.4126 43.8176H35.7903L40.1976 50.2412L38.184 52.2548C35.6147 49.7704 32.1201 48.2371 28.2723 48.2371C20.4025 48.237 14 54.6394 14 62.5093C14 70.3791 20.4025 76.7814 28.2721 76.7814C36.1418 76.7814 42.5443 70.3789 42.5443 62.5093C42.5443 60.4702 42.1114 58.5312 41.3377 56.7752L43.3204 54.7924L52.4307 68.0704C52.9567 68.8368 53.8061 69.2489 54.6704 69.2489C55.1993 69.2489 55.734 69.0945 56.2031 68.7727C56.2826 68.7181 56.3581 68.6599 56.4299 68.5985C56.6671 68.4147 56.8781 68.1889 57.0498 67.9222L68.5628 50.0253L70.3887 52.6863C67.9544 55.2476 66.4557 58.7056 66.4557 62.5094C66.4557 70.3792 72.8582 76.7816 80.7279 76.7816C88.5975 76.7816 95 70.3791 95 62.5094C95 54.6398 88.5977 48.237 80.7279 48.237Z" fill="black"/>
<defs>
<linearGradient id="paint0_linear" x1="5" y1="5" x2="105" y2="105" gradientUnits="userSpaceOnUse">
<stop stop-color="#FF4D00"/>
<stop offset="1" stop-color="#EE0930"/>
</linearGradient>
</defs>
</svg>
