<svg width="110" height="110" viewBox="0 0 110 110" fill="none" xmlns="http://www.w3.org/2000/svg">
<circle cx="55" cy="55" r="52.5" fill="#D50000" stroke="url(#paint0_linear)" stroke-width="5"/>
<g clip-path="url(#clip0)">
<path d="M43.7208 85.2612L24.8545 66.3947C24.1867 65.7269 23.1041 65.7269 22.4362 66.3947L21.6032 67.2277C19.6165 69.2144 19.6165 72.4355 21.6032 74.4224L35.693 88.5122C36.6849 89.5041 37.9875 90 39.2903 90C40.5931 90 41.8958 89.5041 42.8877 88.5122L43.7207 87.6792C44.3886 87.0115 44.3886 85.9289 43.7208 85.2612Z" fill="black"/>
<path d="M83.1701 27.1951L82.7023 26.7273C73.7325 17.7575 59.19 17.7575 50.2203 26.7273L47.5962 29.3514C47.3216 27.8661 46.5918 26.369 45.1721 24.9494C41.0188 20.796 34.2606 20.796 30.1072 24.9494C29.9493 25.1073 29.8138 25.2791 29.7013 25.4611C23.0751 32.4321 24.4722 43.3234 27.6364 48.9204C29.2392 51.7554 30.9638 52.6188 32.2969 52.7683C32.2193 54.002 32.2396 55.2406 32.3597 56.4716L28.8516 59.9797C28.1839 60.6474 28.1839 61.73 28.8516 62.3977L47.7181 81.2642C48.3858 81.932 49.4684 81.932 50.1361 81.2642L53.8277 77.5727C54.4425 77.6219 55.0587 77.6479 55.6751 77.6479C61.5568 77.6479 67.4386 75.4088 71.916 70.9314L83.1702 59.6772C92.1256 50.7219 92.1256 36.1505 83.1701 27.1951ZM80.7402 43.6879C80.6729 47.5155 78.8795 51.2966 75.5535 54.6227C75.0016 55.1746 74.2782 55.4506 73.5551 55.4506C72.832 55.4506 72.1083 55.1747 71.5567 54.6227C70.4529 53.5191 70.4529 51.7297 71.5567 50.6257C77.4209 44.761 74.9109 39.7891 71.7725 36.651C70.6688 35.5474 70.6688 33.758 71.7725 32.654C72.8761 31.5504 74.6658 31.55 75.7695 32.654C79.0899 35.9738 80.8086 39.7894 80.7402 43.6879Z" fill="black"/>
</g>
<defs>
<linearGradient id="paint0_linear" x1="5" y1="5" x2="105" y2="105" gradientUnits="userSpaceOnUse">
<stop stop-color="#FF4D00"/>
<stop offset="1" stop-color="#EE0930"/>
</linearGradient>
<clipPath id="clip0">
<rect width="70" height="70" fill="white" transform="translate(20 20)"/>
</clipPath>
</defs>
</svg>
