<svg width="110" height="110" viewBox="0 0 110 110" fill="none" xmlns="http://www.w3.org/2000/svg">
<circle cx="55" cy="55" r="52.5" fill="#00E5FF" stroke="url(#paint0_linear)" stroke-width="5"/>
<path d="M40.3899 20.7442C35.7378 22.6304 31.5635 25.4036 27.984 28.9821C24.4035 32.5616 21.6334 36.737 19.7463 41.3881C17.9244 45.8817 17 50.6302 17 55.501C17 60.3708 17.9244 65.1193 19.7463 69.6108C21.6334 74.2629 24.4046 78.4384 27.984 82.0169C31.5635 85.5974 35.7368 88.3686 40.3899 90.2547C44.8834 92.0787 49.6308 93 54.5016 93C59.3723 93 64.1187 92.0756 68.6122 90.2547C73.2632 88.3686 77.4396 85.5974 81.018 82.0169C84.5985 78.4384 87.3697 74.265 89.2558 69.6108C91.0777 65.1193 92 60.3708 92 55.501C92 50.6302 91.0766 45.8817 89.2558 41.3881C87.3697 36.737 84.5965 32.5606 81.018 28.9821C77.4396 25.4036 73.2674 22.6304 68.6122 20.7442C64.1187 18.9234 59.3723 18 54.5016 18C49.6308 18 44.8834 18.9234 40.3899 20.7442ZM26.3725 71.2876C24.5662 70.1539 22.9019 68.8481 21.4282 67.3101C19.1773 60.976 18.796 54.1186 20.2872 47.6093C20.9888 46.2258 21.7868 44.8972 22.6894 43.6246C22.9682 43.2318 23.2263 42.8224 23.5247 42.4411L31.9874 47.4487C31.9874 47.515 31.9874 47.5875 31.9874 47.6611C31.9656 52.2127 32.4278 56.7312 33.3481 61.1843C33.3512 61.2051 33.3543 61.2165 33.3584 61.2351L26.7954 71.526C26.6523 71.4534 26.5104 71.3747 26.3725 71.2876ZM51.5346 88.6847C52.9947 89.4298 54.4964 90.0589 56.0395 90.5708C49.4847 90.8558 42.8646 89.32 37.0125 85.9622L51.1988 88.4898C51.3076 88.5593 51.4185 88.6256 51.5346 88.6847ZM51.4827 86.1239L34.7419 83.1402C32.7833 80.7618 31.0215 78.2456 29.5074 75.5563C29.1219 74.8723 28.6918 74.208 28.3654 73.494L34.9222 63.2135C35.0673 63.2498 35.229 63.2881 35.4124 63.3368C39.5142 64.4343 43.6885 65.2147 47.8919 65.8261C48.1375 65.8603 48.3427 65.8904 48.5178 65.909L56.3773 79.4985C55.0135 81.4158 53.6341 83.3226 52.2247 85.2088C51.9905 85.5228 51.7418 85.8244 51.4827 86.1239ZM79.335 80.3349C78.0023 81.6686 76.5877 82.8708 75.1068 83.9424C74.8612 81.9795 74.4374 80.0561 73.8394 78.1772L82.2254 62.5326C84.5353 61.4807 86.7634 60.2879 88.8319 58.809C89.1024 58.6173 89.3273 58.4028 89.5014 58.1686C88.8941 66.2531 85.5053 74.1655 79.335 80.3349ZM78.963 60.0454C79.2749 60.6402 79.5827 61.2413 79.8916 61.8507L71.7916 76.9605C71.745 76.9709 71.7004 76.9813 71.6538 76.9875C67.2753 77.8052 62.8616 78.2404 58.4106 78.2612L50.3272 64.284C51.5853 61.9481 52.832 59.6029 54.0684 57.2566C54.9078 55.6648 55.7327 54.0626 56.5566 52.4614L73.286 50.7432C75.3348 53.7486 77.2759 56.8182 78.963 60.0454ZM75.569 42.1229C74.7752 44.2194 73.9254 46.2942 73.0808 48.3731L56.7835 50.0468C56.5887 49.7898 56.3866 49.5369 56.1742 49.2954C54.2497 47.116 52.3128 44.95 50.379 42.7779C50.3967 42.7561 50.4143 42.7395 50.4319 42.7198C49.6515 41.9405 48.8691 41.1612 48.0888 40.3798L52.6258 26.7198C52.9388 26.6369 53.2538 26.5674 53.572 26.5332C56.0384 26.2824 58.508 25.9985 60.9807 25.8555C62.4947 25.7705 64.0171 25.7218 65.5571 25.8306L76.7826 38.4833C76.396 39.7041 76.0188 40.928 75.569 42.1229ZM79.335 30.6651C82.4316 33.7638 84.8296 37.2998 86.5251 41.0772C84.4276 39.6336 82.1849 38.446 79.8273 37.478C79.4604 37.3267 79.0843 37.193 78.7019 37.0614L67.6525 24.6077C67.7292 24.0698 67.7696 23.531 67.7862 22.9879C71.9896 24.6989 75.9297 27.2607 79.335 30.6651ZM43.2543 22.334C43.2978 22.3661 43.3186 22.393 43.3434 22.4003C45.869 23.2729 48.1665 24.558 50.3324 26.0824L46.0938 38.847C46.0721 38.8533 46.0513 38.8595 46.0306 38.8688C45.1632 39.2274 44.2792 39.5486 43.4253 39.9373C39.907 41.5363 36.4767 43.3074 33.2455 45.4309L24.8813 40.4824C24.8937 40.2212 24.9383 39.9559 25.0274 39.7196C25.5891 38.2232 26.1414 36.7184 26.7767 35.252C27.2659 34.1224 27.8234 33.0311 28.4317 31.9647C28.8297 31.5253 29.2421 31.09 29.667 30.6651C33.6393 26.6939 38.3338 23.874 43.332 22.2065C43.3061 22.2469 43.2792 22.2894 43.2543 22.334Z" fill="black"/>
<defs>
<linearGradient id="paint0_linear" x1="5" y1="5" x2="105" y2="105" gradientUnits="userSpaceOnUse">
<stop stop-color="#FF4D00"/>
<stop offset="1" stop-color="#EE0930"/>
</linearGradient>
</defs>
</svg>
