<svg width="110" height="110" viewBox="0 0 110 110" fill="none" xmlns="http://www.w3.org/2000/svg">
<circle cx="55" cy="55" r="52.5" fill="#00BCD4" stroke="url(#paint0_linear)" stroke-width="5"/>
<path d="M63.0336 64.0891H57.7549C57.5956 64.0891 57.4547 64.1922 57.4063 64.344L50.9769 84.5229C50.9017 84.759 51.078 84.9999 51.3256 84.9999H56.8781C56.8886 84.9613 56.8966 84.9225 56.9087 84.8841L63.3824 64.566C63.4576 64.33 63.2813 64.0891 63.0336 64.0891Z" fill="black"/>
<path d="M77.3936 66.3931C76.5543 64.9353 74.8207 64.0526 72.8709 64.0891H69.429C69.2698 64.0891 69.1288 64.1922 69.0804 64.3439L62.6508 84.523C62.5756 84.7591 62.7518 85 62.9994 85H69.0808C70.4733 85 72.4057 84.3403 73.7034 81.1977L73.7366 81.1174L77.5105 69.9855C78.0773 68.8338 78.0403 67.5161 77.3936 66.3931Z" fill="black"/>
<path d="M43.9506 19.6687C43.8678 17.0802 41.7361 15 39.1277 15H36.9203C34.2551 15 32.0947 17.1604 32.0947 19.8256V30.488C32.0947 30.6903 32.2586 30.8539 32.4605 30.8539H44.6441C44.8604 30.8539 45.0293 30.6674 45.0082 30.4524L43.9506 19.6687Z" fill="black"/>
<path d="M51.3594 64.0892L48.3072 64.0893L45.6059 36.5459C45.5875 36.3586 45.4301 36.2158 45.2418 36.2158H32.4605C32.2585 36.2158 32.0947 36.3797 32.0947 36.5816V64.4885C32.0941 64.5123 32.0911 64.5355 32.0911 64.5593V71.3835C32.0911 78.6271 37.7775 84.5643 44.9203 84.9736C45.0901 84.9833 45.2388 84.8701 45.2904 84.708C45.2908 84.707 45.2909 84.7062 45.2913 84.7051L51.7081 64.566C51.7834 64.3302 51.6072 64.0892 51.3594 64.0892Z" fill="black"/>
<defs>
<linearGradient id="paint0_linear" x1="5" y1="5" x2="105" y2="105" gradientUnits="userSpaceOnUse">
<stop stop-color="#FF4D00"/>
<stop offset="1" stop-color="#EE0930"/>
</linearGradient>
</defs>
</svg>
