<svg width="110" height="110" viewBox="0 0 110 110" fill="none" xmlns="http://www.w3.org/2000/svg">
<circle cx="55" cy="55" r="52.5" fill="#673AB7" stroke="url(#paint0_linear)" stroke-width="5"/>
<path d="M55 20C35.701 20 20 35.701 20 55C20 74.299 35.701 90 55 90C74.299 90 90 74.299 90 55C90 35.701 74.299 20 55 20ZM38.0303 60.303C35.1062 60.303 32.7273 57.9241 32.7273 55C32.7273 52.0759 35.1062 49.697 38.0303 49.697C40.9544 49.697 43.3333 52.0759 43.3333 55C43.3333 57.9241 40.9544 60.303 38.0303 60.303ZM55 60.303C52.0759 60.303 49.697 57.9241 49.697 55C49.697 52.0759 52.0759 49.697 55 49.697C57.9241 49.697 60.303 52.0759 60.303 55C60.303 57.9241 57.9241 60.303 55 60.303ZM71.9697 60.303C69.0456 60.303 66.6667 57.9241 66.6667 55C66.6667 52.0759 69.0456 49.697 71.9697 49.697C74.8938 49.697 77.2727 52.0759 77.2727 55C77.2727 57.9241 74.8938 60.303 71.9697 60.303Z" fill="black"/>
<defs>
<linearGradient id="paint0_linear" x1="5" y1="5" x2="105" y2="105" gradientUnits="userSpaceOnUse">
<stop stop-color="#FF4D00"/>
<stop offset="1" stop-color="#EE0930"/>
</linearGradient>
</defs>
</svg>
