<svg width="110" height="110" viewBox="0 0 110 110" fill="none" xmlns="http://www.w3.org/2000/svg">
<circle cx="55" cy="55" r="52.5" fill="#E53935" stroke="url(#paint0_linear)" stroke-width="5"/>
<g clip-path="url(#clip0)">
<path d="M38.6679 49.7118C39.3167 54.1318 37.836 58.6186 34.6766 61.7748L23.0657 73.3883C20.6308 75.8232 20.6308 79.7683 23.0685 82.206C25.4994 84.6399 29.4517 84.6354 31.8784 82.206L43.4919 70.5925C46.6548 67.4284 51.1304 65.9499 55.5563 66.6003C57.586 66.8992 59.6797 66.8846 61.7784 66.6224L38.6457 43.4895C38.3823 45.5883 38.37 47.6819 38.6679 49.7118Z" fill="black"/>
<path d="M79.4433 25.8221C70.9075 17.2864 56.11 18.2482 46.389 27.9702C44.1801 30.178 42.4439 32.6548 41.1494 35.2554L70.0126 64.1156C72.6129 62.823 75.0898 61.0854 77.2986 58.8779C87.0186 49.158 87.9792 34.3582 79.4433 25.8221Z" fill="black"/>
<path d="M80.9464 74.3723C76.6301 74.3723 73.1324 77.8701 73.1324 82.1863C73.1324 86.5024 76.6301 90 80.9464 90C85.2612 90 88.7603 86.5022 88.7603 82.1863C88.7603 77.8701 85.2612 74.3723 80.9464 74.3723Z" fill="black"/>
</g>
<defs>
<linearGradient id="paint0_linear" x1="5" y1="5" x2="105" y2="105" gradientUnits="userSpaceOnUse">
<stop stop-color="#FF4D00"/>
<stop offset="1" stop-color="#EE0930"/>
</linearGradient>
<clipPath id="clip0">
<rect width="70" height="70" fill="white" transform="translate(20 20)"/>
</clipPath>
</defs>
</svg>
