<svg width="110" height="110" viewBox="0 0 110 110" fill="none" xmlns="http://www.w3.org/2000/svg">
<circle cx="55" cy="55" r="52.5" fill="#2979FF" stroke="url(#paint0_linear)" stroke-width="5"/>
<g clip-path="url(#clip0)">
<path d="M31.7242 79.8277C32.2955 79.8277 32.7587 79.3645 32.7587 78.7932C32.7587 78.2219 32.2955 77.7587 31.7242 77.7587C31.1529 77.7587 30.6897 78.2219 30.6897 78.7932C30.6897 79.3645 31.1529 79.8277 31.7242 79.8277Z" fill="black"/>
<path d="M47.2415 79.8277C47.8128 79.8277 48.276 79.3645 48.276 78.7932C48.276 78.2219 47.8128 77.7587 47.2415 77.7587C46.6702 77.7587 46.207 78.2219 46.207 78.7932C46.207 79.3645 46.6702 79.8277 47.2415 79.8277Z" fill="black"/>
<path d="M62.7586 79.8277C63.3299 79.8277 63.7931 79.3645 63.7931 78.7932C63.7931 78.2219 63.3299 77.7587 62.7586 77.7587C62.1873 77.7587 61.7241 78.2219 61.7241 78.7932C61.7241 79.3645 62.1873 79.8277 62.7586 79.8277Z" fill="black"/>
<path d="M78.2759 79.8277C78.8473 79.8277 79.3104 79.3645 79.3104 78.7932C79.3104 78.2219 78.8473 77.7587 78.2759 77.7587C77.7046 77.7587 77.2415 78.2219 77.2415 78.7932C77.2415 79.3645 77.7046 79.8277 78.2759 79.8277Z" fill="black"/>
<path d="M78.2759 72.5863C75.2495 72.5894 72.6665 74.7747 72.1621 77.7588H68.8724C68.3704 74.7735 65.7858 72.5873 62.7587 72.5873C59.7315 72.5873 57.1469 74.7735 56.6449 77.7588H53.3552C52.8531 74.7735 50.2686 72.5873 47.2414 72.5873C44.2142 72.5873 41.6297 74.7735 41.1276 77.7588H37.838C37.3002 74.5771 34.4143 72.3382 31.1988 72.6081C27.9834 72.8779 25.511 75.5665 25.511 78.7932C25.511 82.02 27.9834 84.7086 31.1988 84.9784C34.4143 85.2482 37.3002 83.0093 37.838 79.8277H41.1276C41.6297 82.813 44.2142 84.9991 47.2414 84.9991C50.2686 84.9991 52.8531 82.813 53.3552 79.8277H56.6449C57.1469 82.813 59.7315 84.9991 62.7587 84.9991C65.7858 84.9991 68.3704 82.813 68.8724 79.8277H72.1621C72.7111 83.0759 75.7021 85.3294 78.9757 84.9613C82.2493 84.5932 84.6652 81.7318 84.4792 78.4428C84.2932 75.1538 81.5702 72.583 78.2759 72.5863V72.5863ZM31.7242 81.8967C30.0102 81.8967 28.6207 80.5072 28.6207 78.7932C28.6207 77.0793 30.0102 75.6898 31.7242 75.6898C33.4382 75.6898 34.8276 77.0793 34.8276 78.7932C34.8225 80.5051 33.436 81.8916 31.7242 81.8967ZM47.2414 81.8967C45.5274 81.8967 44.138 80.5072 44.138 78.7932C44.138 77.0793 45.5274 75.6898 47.2414 75.6898C48.9554 75.6898 50.3449 77.0793 50.3449 78.7932C50.3397 80.5051 48.9533 81.8916 47.2414 81.8967ZM62.7587 81.8967C61.0447 81.8967 59.6552 80.5072 59.6552 78.7932C59.6552 77.0793 61.0447 75.6898 62.7587 75.6898C64.4726 75.6898 65.8621 77.0793 65.8621 78.7932C65.857 80.5051 64.4705 81.8916 62.7587 81.8967ZM78.2759 81.8967C76.5619 81.8967 75.1724 80.5072 75.1724 78.7932C75.1724 77.0793 76.5619 75.6898 78.2759 75.6898C79.9899 75.6898 81.3793 77.0793 81.3793 78.7932C81.3742 80.5051 79.9878 81.8916 78.2759 81.8967Z" fill="black"/>
<path d="M36.3721 44.5363L38.0479 48.5615C38.8827 50.4628 40.8611 51.5961 42.9235 51.3546C45.2389 51.1584 47.0317 49.2441 47.0759 46.9208C47.079 46.7979 47.0748 46.6749 47.0635 46.5525L46.8566 44.2766C46.6058 41.3907 48.0794 38.628 50.6159 37.2287L52.9445 35.9201C52.2421 33.0742 51.758 30.1789 51.4962 27.2594C51.4493 26.7679 51.0616 26.378 50.5704 26.3284L42.5666 25.5256C42.3723 25.5055 42.1763 25.5414 42.0017 25.629L31.9848 30.6297C31.0971 31.0766 30.4752 31.9194 30.31 32.8994L28.9548 41.0346H30.6897C33.0807 41.078 35.2584 42.4199 36.3721 44.5363V44.5363ZM42.069 43.1035C43.783 43.1035 45.1724 44.493 45.1724 46.207C45.1724 47.921 43.783 49.3104 42.069 49.3104C40.355 49.3104 38.9655 47.921 38.9655 46.207C38.9655 44.493 40.355 43.1035 42.069 43.1035Z" fill="black"/>
<path d="M42.0689 47.2414C42.6402 47.2414 43.1034 46.7782 43.1034 46.2069C43.1034 45.6356 42.6402 45.1724 42.0689 45.1724C41.4976 45.1724 41.0344 45.6356 41.0344 46.2069C41.0344 46.7782 41.4976 47.2414 42.0689 47.2414Z" fill="black"/>
<path d="M27.2655 64.8276H35.8166C35.3852 57.3421 30.3897 53.4483 26.7659 51.6038L26.4473 52.45C25.2122 55.7315 25.2067 59.3492 26.4317 62.6345L27.2655 64.8276Z" fill="black"/>
<path d="M37.8855 64.8277H81.341C81.3135 64.1562 81.25 63.4866 81.1507 62.8218C76.372 60.0853 70.877 58.8591 65.3883 59.3046C64.3977 59.3797 63.431 58.9761 62.788 58.2189C62.145 57.4616 61.9033 56.4423 62.1379 55.477C62.5506 53.9303 63.148 52.4388 63.9173 51.0349C62.4513 50.6357 61.0881 49.9263 59.92 48.9546L57.3473 52.0415C57.1107 52.3257 56.7405 52.4621 56.3761 52.3994C56.0117 52.3367 55.7085 52.0843 55.5806 51.7373C55.4527 51.3904 55.5197 51.0016 55.7562 50.7174L58.4221 47.5156C57.5628 46.5443 56.8089 45.4846 56.1731 44.3543L53.2083 47.9046C52.8421 48.3434 52.1895 48.4022 51.7507 48.036C51.3119 47.6698 51.2531 47.0172 51.6193 46.5784L55.149 42.3525C54.5046 40.9307 53.9568 39.467 53.5093 37.9715L51.6276 39.0298C49.8038 40.028 48.7394 42.0071 48.9121 44.0791L49.119 46.3291C49.1397 46.5256 49.1483 46.7232 49.1448 46.9208C49.1026 50.3018 46.5121 53.104 43.1448 53.4112C42.9043 53.4366 42.6626 53.4494 42.4207 53.4494C39.696 53.4695 37.2239 51.8568 36.1445 49.3549L34.4686 45.3318C33.671 43.9937 32.2467 43.1539 30.6897 43.1036H28.6104L27.5521 49.4605C27.5412 49.5265 27.5239 49.5913 27.5004 49.6539C31.6 51.6898 37.4459 56.1163 37.8855 64.8277V64.8277Z" fill="black"/>
<path d="M27.5862 67.9312C27.5862 69.6451 28.9756 71.0346 30.6896 71.0346H78.2758C79.9898 71.0346 81.3793 69.6451 81.3793 67.9312V66.8967H27.5862V67.9312Z" fill="black"/>
<path d="M65.2186 57.2387C70.4641 56.8193 75.7263 57.8093 80.4607 60.1063C78.5914 54.9712 73.84 52.1056 66.0814 51.3918C65.2322 52.8274 64.5788 54.37 64.1386 55.9787C64.0605 56.2948 64.1411 56.629 64.3548 56.8746C64.5669 57.1285 64.8887 57.2642 65.2186 57.2387V57.2387Z" fill="black"/>
</g>
<defs>
<linearGradient id="paint0_linear" x1="5" y1="5" x2="105" y2="105" gradientUnits="userSpaceOnUse">
<stop stop-color="#FF4D00"/>
<stop offset="1" stop-color="#EE0930"/>
</linearGradient>
<clipPath id="clip0">
<rect width="60" height="60" fill="white" transform="translate(25 25)"/>
</clipPath>
</defs>
</svg>
