<svg width="110" height="110" viewBox="0 0 110 110" fill="none" xmlns="http://www.w3.org/2000/svg">
<circle cx="55" cy="55" r="52.5" fill="#1DE9B6" stroke="url(#paint0_linear)" stroke-width="5"/>
<g clip-path="url(#clip0)">
<path d="M83.6224 26.3754C79.0731 21.8258 72.6804 19.6471 65.2985 20.0464C64.6616 20.081 64.3699 20.8587 64.8243 21.3062L88.7183 44.8302C89.1728 45.2777 89.9437 44.9736 89.9711 44.3365C90.2805 37.108 88.0973 30.8504 83.6224 26.3754Z" fill="black"/>
<path d="M45.5219 88.6713L21.2984 64.823C20.8462 64.3777 20.0801 64.6763 20.046 65.3097C19.6496 72.6865 21.8288 79.0748 26.3759 83.6218C30.5728 87.8187 36.3363 89.9999 42.9999 89.9999C43.6755 89.9999 44.361 89.9767 45.055 89.9309C45.688 89.8892 45.9739 89.1163 45.5219 88.6713Z" fill="black"/>
<path d="M88.292 52.3561L57.2629 21.8073C57.0715 21.6189 56.7928 21.5478 56.5357 21.625C48.8884 23.9258 41.3506 28.5611 34.9561 34.9556C28.5364 41.3752 23.889 48.9476 21.5973 56.6261C21.5195 56.8867 21.5945 57.1689 21.7882 57.3598L53.0159 88.1042C53.2084 88.2938 53.4898 88.3646 53.748 88.2848C61.2972 85.9552 68.7272 81.3565 75.0422 75.0416C81.5416 68.5421 86.2241 60.8613 88.4845 53.0848C88.5597 52.8256 88.4846 52.5456 88.292 52.3561ZM72.0017 52.649C71.4489 53.2017 70.7243 53.4783 70 53.4783C69.2753 53.4783 68.551 53.202 67.9983 52.649L64.8738 49.5245L62.5194 51.879L65.6438 55.0034C66.7495 56.1088 66.7495 57.9014 65.6438 59.0071C65.0911 59.5598 64.3664 59.8364 63.6421 59.8364C62.9178 59.8364 62.193 59.56 61.6404 59.0071L58.516 55.8826L56.1879 58.2107L59.3124 61.3351C60.418 62.4405 60.418 64.2332 59.3124 65.3388C58.7596 65.8916 58.035 66.1681 57.3107 66.1681C56.5863 66.1681 55.8616 65.8917 55.309 65.3388L52.1845 62.2144L49.8811 64.5178L53.0055 67.6423C54.1112 68.7476 54.1112 70.5403 53.0055 71.6459C52.4528 72.1987 51.7281 72.4753 51.0038 72.4753C50.2795 72.4753 49.5547 72.1988 49.0021 71.6459L45.8777 68.5215L43.7186 70.6806C43.1658 71.2333 42.4412 71.5099 41.7169 71.5099C40.9926 71.5099 40.2678 71.2334 39.7152 70.6806C38.6095 69.5752 38.6095 67.7825 39.7152 66.6769L41.8743 64.5178L38.8813 61.5249C37.7757 60.4195 37.7757 58.6269 38.8813 57.5212C39.9867 56.4158 41.7794 56.4158 42.885 57.5212L45.8779 60.5141L48.1812 58.2108L45.1878 55.2179C44.0821 54.1125 44.0821 52.3199 45.1878 51.2144C46.2932 50.109 48.0858 50.109 49.1915 51.2144L52.1842 54.2072L54.5123 51.8791L51.5194 48.8862C50.4137 47.7808 50.4137 45.9881 51.5194 44.8825C52.6247 43.7771 54.4174 43.7771 55.5231 44.8825L58.516 47.8754L60.8704 45.521L57.8775 42.5281C56.7718 41.4227 56.7718 39.63 57.8775 38.5244C58.9831 37.4187 60.7755 37.4187 61.8812 38.5244L64.8741 41.5173L66.8452 39.5462C67.9505 38.4408 69.7432 38.4408 70.8488 39.5462C71.9545 40.6516 71.9545 42.4443 70.8488 43.5499L68.8778 45.521L72.0022 48.6454C73.1073 49.7509 73.1073 51.5435 72.0017 52.649Z" fill="black"/>
</g>
<defs>
<linearGradient id="paint0_linear" x1="5" y1="5" x2="105" y2="105" gradientUnits="userSpaceOnUse">
<stop stop-color="#FF4D00"/>
<stop offset="1" stop-color="#EE0930"/>
</linearGradient>
<clipPath id="clip0">
<rect width="70" height="70" fill="white" transform="translate(20 20)"/>
</clipPath>
</defs>
</svg>
