<svg width="110" height="110" viewBox="0 0 110 110" fill="none" xmlns="http://www.w3.org/2000/svg">
<circle cx="55" cy="55" r="52.5" fill="#C6FF00" stroke="url(#paint0_linear)" stroke-width="5"/>
<g clip-path="url(#clip0)">
<path d="M88.8079 35.2315L88.6366 35.0601C87.0271 33.4506 84.4041 33.447 82.7848 35.0649L76.4854 41.4306C76.1536 41.7635 75.6227 41.7769 75.2765 41.4583L66.4446 33.3045C65.5868 32.5117 64.4707 32.0761 63.3015 32.0761H50.1634C49.8533 32.0761 49.5565 32.1944 49.3321 32.4068L38.1969 42.9797C36.5656 44.6122 36.4534 47.2437 37.9484 48.846C38.7471 49.7027 39.8258 50.1744 40.9852 50.1744H41.0058C42.1556 50.1683 43.2608 49.6797 44.0246 48.8447L51.8888 40.5219H54.7037L36.3509 61.0335H25.0311C22.3477 61.0335 20.141 63.0399 20.0071 65.6014C19.9359 66.9395 20.404 68.2112 21.3247 69.1812C22.2319 70.138 23.5073 70.6858 24.8261 70.6858H41.7177C42.0507 70.6858 42.3693 70.5483 42.5985 70.3033L51.253 61.0648L58.5309 68.6756L56.3338 82.7173C55.7799 85.0436 56.8961 87.4132 58.987 88.3482C59.6313 88.6379 60.3153 88.7826 60.9959 88.7826C61.7282 88.7826 62.457 88.6149 63.1278 88.2831C64.4236 87.6412 65.3551 86.4673 65.6941 85.0073L69.4477 64.8736C69.5201 64.4827 69.3958 64.0797 69.1135 63.7987L59.0956 53.794L67.054 45.8478L72.6017 51.3942C74.151 52.9435 76.8512 52.9435 78.3992 51.3942L88.8081 40.9865C89.5767 40.218 90.0002 39.1948 90.0002 38.1089C90 37.022 89.5764 36.0001 88.8079 35.2315Z" fill="black"/>
<path d="M75.5006 35.6958C79.4931 35.6958 82.7399 32.449 82.7399 28.4564C82.7399 24.4639 79.4931 21.2171 75.5006 21.2171C71.5082 21.2171 68.2612 24.4639 68.2612 28.4564C68.2614 32.449 71.5082 35.6958 75.5006 35.6958Z" fill="black"/>
</g>
<defs>
<linearGradient id="paint0_linear" x1="5" y1="5" x2="105" y2="105" gradientUnits="userSpaceOnUse">
<stop stop-color="#FF4D00"/>
<stop offset="1" stop-color="#EE0930"/>
</linearGradient>
<clipPath id="clip0">
<rect width="70" height="70" fill="white" transform="translate(20 20)"/>
</clipPath>
</defs>
</svg>
