<svg width="110" height="110" viewBox="0 0 110 110" fill="none" xmlns="http://www.w3.org/2000/svg">
<circle cx="55" cy="55" r="52.5" fill="#35BAF6" stroke="url(#paint0_linear)" stroke-width="5"/>
<g clip-path="url(#clip0)">
<path d="M81.6518 39.547C84.9948 37.9065 86.3768 33.8685 84.7364 30.5269C83.1 27.1824 79.0607 25.8018 75.7175 27.4409C72.3759 29.0787 70.995 33.117 72.6329 36.4586C74.2709 39.8016 78.3088 41.1836 81.6518 39.547Z" fill="black"/>
<path d="M63.3596 48.2362C62.8216 50.858 63.0576 53.2053 65.6699 53.9242C65.6699 53.9242 77.6865 57.2248 77.6916 57.2262L77.6983 57.2276C79.6501 57.7619 81.648 56.6131 82.1793 54.6771C82.7109 52.7384 81.5741 50.734 79.6355 50.1987C79.6331 50.1973 79.6316 50.1973 79.629 50.1959L73.5007 48.5129L71.0781 46.8962C71.8115 43.3291 71.5504 44.5952 72.2031 41.4233C72.5472 39.7526 71.2666 37.6163 70.5164 36.0839C69.1039 33.2051 65.6277 32.0154 62.7503 33.4266L58.7257 35.3996L65.1452 39.6868C64.9976 40.1958 64.6494 41.9576 64.5335 42.5248L36.1827 23.597C34.9458 22.7659 33.267 23.101 32.4377 24.3431C31.6093 25.5827 31.9431 27.2603 33.1838 28.0884L63.3596 48.2362Z" fill="black"/>
<path d="M85.6161 79.9008C84.8526 78.6217 83.1974 78.2063 81.9116 78.9712L78.1929 81.1959L53.593 72.7296L65.1927 62.9575C67.3975 61.1022 67.2841 57.6534 64.9461 55.9485L58.4553 51.218L60.7856 50.0762L61.0546 49.9441L47.5071 40.8988L47.5044 40.9001C45.2426 42.0091 43.8039 44.1115 43.4266 46.4216C42.9586 49.2729 44.1507 51.7535 46.8461 53.7856L55.103 59.803L43.8607 69.3798L19.581 61.023C18.1673 60.5337 16.6322 61.2852 16.1481 62.6965C15.6615 64.1076 16.4119 65.6439 17.8216 66.1304L77.6215 86.7121C77.9078 86.8111 78.206 86.8599 78.5013 86.8599C78.984 86.8599 79.464 86.7306 79.8888 86.476L84.6864 83.6051C85.9656 82.8402 86.3823 81.1812 85.6161 79.9008Z" fill="black"/>
</g>
<defs>
<linearGradient id="paint0_linear" x1="5" y1="5" x2="105" y2="105" gradientUnits="userSpaceOnUse">
<stop stop-color="#FF4D00"/>
<stop offset="1" stop-color="#EE0930"/>
</linearGradient>
<clipPath id="clip0">
<rect width="70" height="70" fill="white" transform="translate(16 20)"/>
</clipPath>
</defs>
</svg>
