<svg width="110" height="110" viewBox="0 0 110 110" fill="none" xmlns="http://www.w3.org/2000/svg">
<circle cx="55" cy="55" r="52.5" fill="#FFEF62" stroke="url(#paint0_linear)" stroke-width="5"/>
<g clip-path="url(#clip0)">
<path d="M80.2243 30.6343C82.6751 28.2437 82.7226 24.3198 80.3345 21.8713C77.9464 19.4205 74.0276 19.3707 71.5795 21.7584C69.1312 24.1465 69.076 28.0655 71.4667 30.5138C73.8471 32.9673 77.7734 33.0172 80.2243 30.6343Z" fill="black"/>
<path d="M87.155 84.0218C86.5364 82.6772 84.9479 82.0846 83.5951 82.7059C80.911 83.9405 78.0744 85.5421 73.8517 83.9851L67.0627 81.4713L71.0654 66.661C71.422 65.3399 71.0839 63.9271 70.1667 62.9126L61.6553 53.4862L67.3226 47.966L68.1822 50.7499C68.5151 51.8324 69.3747 52.674 70.4628 52.986L81.1681 56.0552C82.9377 56.5639 84.8038 55.5469 85.3174 53.7566C85.8284 51.974 84.7984 50.1153 83.0184 49.6072L74.0593 47.0381L72.7063 42.6605C74.5098 40.5869 74.4734 37.4546 72.5228 35.4521L70.9345 33.8217C70.2188 33.0876 69.0209 32.4769 68.4231 32.325L55.2932 28.959C54.098 28.6498 52.8213 29.0298 51.9879 29.942L44.0874 38.5529C42.8345 39.9187 42.9262 42.0391 44.292 43.292C45.6549 44.5477 47.7836 44.4481 49.031 43.0877L55.5737 35.958L59.946 37.0799L50.6039 46.181C49.0495 47.5699 47.867 49.3576 48.6929 51.3211L52.3862 60.1106L34.4752 69.4131L34.2811 69.3424C30.0634 67.7773 28.9546 64.716 27.7201 62.0316C27.1015 60.687 25.5129 60.0946 24.1604 60.7158C22.8132 61.3344 22.2231 62.9284 22.8446 64.2756C24.0791 66.9598 25.9584 71.9848 32.42 74.3754L71.9909 89.0178C78.4498 91.419 83.155 88.816 85.8394 87.5815C87.1866 86.9629 87.7765 85.369 87.155 84.0218ZM59.3905 65.5496C59.9229 65.2746 60.3421 64.876 60.6881 64.4301L62.7196 66.6795L59.4747 78.664L44.6672 73.1856L59.3905 65.5496Z" fill="black"/>
</g>
<defs>
<linearGradient id="paint0_linear" x1="5" y1="5" x2="105" y2="105" gradientUnits="userSpaceOnUse">
<stop stop-color="#FF4D00"/>
<stop offset="1" stop-color="#EE0930"/>
</linearGradient>
<clipPath id="clip0">
<rect width="70" height="70" fill="white" transform="translate(20 20)"/>
</clipPath>
</defs>
</svg>
