<svg width="240" height="200" viewBox="0 0 240 200" fill="none" xmlns="http://www.w3.org/2000/svg">
<path d="M7.07381 153.48C7.07381 151.432 7.45781 149.752 8.22581 148.44C9.02581 147.096 10.0178 146.04 11.2018 145.272C12.4178 144.472 13.7458 143.928 15.1858 143.64C16.6578 143.32 18.0658 143.16 19.4098 143.16C19.7938 143.16 20.2738 143.176 20.8498 143.208C21.4578 143.24 22.0818 143.288 22.7218 143.352C23.3938 143.416 24.0658 143.512 24.7378 143.64C25.4418 143.736 26.0978 143.88 26.7058 144.072C26.7698 144.904 26.8178 145.688 26.8498 146.424C26.8818 147.128 26.8978 147.944 26.8978 148.872C26.8978 149.8 26.8818 150.696 26.8498 151.56C26.8178 152.392 26.7698 153.192 26.7058 153.96C26.4498 153.928 26.1138 153.88 25.6978 153.816C25.3138 153.752 24.8978 153.704 24.4498 153.672C24.0338 153.64 23.6018 153.608 23.1538 153.576C22.7378 153.544 22.3378 153.528 21.9538 153.528C20.4178 153.528 19.2978 153.768 18.5938 154.248C17.8898 154.728 17.5378 155.384 17.5378 156.216C17.5378 156.696 17.6498 157.16 17.8738 157.608C18.0978 158.024 18.3858 158.424 18.7378 158.808C19.1218 159.192 19.5378 159.56 19.9858 159.912C20.4658 160.264 20.9458 160.6 21.4258 160.92C22.1938 161.464 22.9618 162.072 23.7298 162.744C24.5298 163.384 25.2498 164.168 25.8898 165.096C26.5298 165.992 27.0578 167.048 27.4738 168.264C27.8898 169.448 28.0978 170.824 28.0978 172.392C28.0978 174.44 27.7458 176.168 27.0418 177.576C26.3378 178.984 25.4258 180.136 24.3058 181.032C23.2178 181.896 21.9858 182.536 20.6098 182.952C19.2658 183.336 17.9218 183.528 16.5778 183.528C15.9698 183.528 15.2178 183.48 14.3218 183.384C13.4578 183.32 12.5778 183.208 11.6818 183.048C10.7858 182.92 9.93781 182.76 9.13781 182.568C8.33781 182.344 7.69781 182.088 7.21781 181.8C7.08981 181.224 6.97781 180.632 6.88181 180.024C6.81781 179.416 6.78581 178.744 6.78581 178.008C6.78581 177.496 6.80181 176.872 6.83381 176.136C6.89781 175.4 6.96181 174.648 7.02581 173.88C7.08981 173.112 7.15381 172.376 7.21781 171.672C7.31381 170.968 7.39381 170.376 7.45781 169.896C7.80981 170.088 8.32181 170.312 8.99381 170.568C9.66581 170.792 10.3858 171.016 11.1538 171.24C11.9538 171.464 12.7538 171.656 13.5538 171.816C14.3538 171.976 15.0578 172.056 15.6658 172.056C16.6898 172.056 17.4578 171.848 17.9698 171.432C18.4818 170.984 18.7378 170.392 18.7378 169.656C18.7378 168.856 18.4498 168.152 17.8738 167.544C17.2978 166.904 16.5778 166.28 15.7138 165.672C14.8498 165.064 13.9058 164.424 12.8818 163.752C11.8898 163.048 10.9618 162.232 10.0978 161.304C9.23381 160.376 8.51381 159.288 7.93781 158.04C7.36181 156.76 7.07381 155.24 7.07381 153.48ZM29.6799 154.344H36.2559V156.696C37.4079 155.8 38.6079 155.096 39.8559 154.584C41.1359 154.04 42.3999 153.768 43.6479 153.768C45.0879 153.768 46.4159 154.136 47.6319 154.872C48.8479 155.576 49.8879 156.568 50.7519 157.848C51.6479 159.128 52.3519 160.648 52.8639 162.408C53.3759 164.168 53.6319 166.104 53.6319 168.216C53.6319 170.392 53.3599 172.424 52.8159 174.312C52.2719 176.168 51.5199 177.784 50.5599 179.16C49.5999 180.536 48.4639 181.608 47.1519 182.376C45.8719 183.144 44.4799 183.528 42.9759 183.528C41.6959 183.528 40.4639 183.256 39.2799 182.712C38.1279 182.168 37.1199 181.48 36.2559 180.648V191.688H29.4399L29.6799 154.344ZM36.2559 165.672C36.2559 166.984 36.6079 168.04 37.3119 168.84C38.0479 169.64 38.9759 170.04 40.0959 170.04C41.3119 170.04 42.3359 169.608 43.1679 168.744C44.0319 167.88 44.4639 166.776 44.4639 165.432C44.4639 164.824 44.3519 164.248 44.1279 163.704C43.9359 163.16 43.6479 162.696 43.2639 162.312C42.8799 161.896 42.4319 161.576 41.9199 161.352C41.4399 161.128 40.9119 161.016 40.3359 161.016C39.1519 161.016 38.1759 161.448 37.4079 162.312C36.6399 163.176 36.2559 164.296 36.2559 165.672ZM65.6372 153.768C69.5412 153.768 72.3252 155.048 73.9892 157.608C75.6852 160.168 76.5332 163.848 76.5332 168.648C76.5332 173.48 75.6852 177.176 73.9892 179.736C72.3252 182.264 69.5412 183.528 65.6372 183.528C61.7012 183.528 58.8852 182.264 57.1892 179.736C55.5252 177.176 54.6932 173.48 54.6932 168.648C54.6932 163.848 55.5252 160.168 57.1892 157.608C58.8852 155.048 61.7012 153.768 65.6372 153.768ZM65.6372 172.248C66.2772 172.248 66.8372 172.12 67.3172 171.864C67.8292 171.608 68.2452 171.272 68.5652 170.856C68.8852 170.44 69.1252 169.976 69.2852 169.464C69.4452 168.92 69.5252 168.36 69.5252 167.784C69.5252 167.208 69.4452 166.648 69.2852 166.104C69.1252 165.56 68.8852 165.08 68.5652 164.664C68.2452 164.248 67.8292 163.912 67.3172 163.656C66.8372 163.4 66.2772 163.272 65.6372 163.272C64.3252 163.272 63.3332 163.736 62.6612 164.664C62.0212 165.592 61.7012 166.632 61.7012 167.784C61.7012 168.36 61.7812 168.92 61.9412 169.464C62.1012 169.976 62.3412 170.44 62.6612 170.856C63.0132 171.272 63.4292 171.608 63.9092 171.864C64.3892 172.12 64.9652 172.248 65.6372 172.248ZM84.3819 154.296L84.7179 157.944C85.1019 157.336 85.5659 156.776 86.1099 156.264C86.6539 155.752 87.2139 155.32 87.7899 154.968C88.3979 154.584 88.9899 154.296 89.5659 154.104C90.1739 153.88 90.7339 153.768 91.2459 153.768C91.3099 154.6 91.3579 155.56 91.3899 156.648C91.4539 157.704 91.4859 158.792 91.4859 159.912C91.4859 161.192 91.4539 162.456 91.3899 163.704C91.3579 164.952 91.3099 166.104 91.2459 167.16C90.9579 167.032 90.5579 166.936 90.0459 166.872C89.5339 166.808 89.1019 166.776 88.7499 166.776C87.5659 166.776 86.6859 167.064 86.1099 167.64C85.5659 168.184 85.2939 168.872 85.2939 169.704V183H78.2379C78.2699 177.816 78.2859 172.904 78.2859 168.264C78.3179 163.592 78.3339 158.936 78.3339 154.296H84.3819ZM95.7797 148.728H102.356V154.296H106.052V167.064H102.26V173.784C102.26 175.096 102.372 175.976 102.596 176.424C102.82 176.84 103.332 177.048 104.132 177.048C104.356 177.048 104.66 177.032 105.044 177C105.428 176.968 105.716 176.92 105.908 176.856C105.972 177.08 106.004 177.544 106.004 178.248C106.004 178.92 106.004 179.608 106.004 180.312C106.004 180.92 106.004 181.48 106.004 181.992C106.004 182.472 105.988 182.808 105.956 183C105.572 183.064 105.14 183.112 104.66 183.144C104.212 183.208 103.764 183.256 103.316 183.288C102.9 183.32 102.5 183.336 102.116 183.336C101.764 183.368 101.476 183.384 101.252 183.384C100.1 183.384 99.1557 183.16 98.4197 182.712C97.6837 182.264 97.1077 181.672 96.6917 180.936C96.2757 180.168 95.9877 179.32 95.8277 178.392C95.6677 177.432 95.5877 176.456 95.5877 175.464C95.5877 175.08 95.5877 174.52 95.5877 173.784C95.6197 173.016 95.6357 172.216 95.6357 171.384C95.6677 170.552 95.6997 169.752 95.7317 168.984C95.7637 168.184 95.7797 167.544 95.7797 167.064H92.8997V154.296H95.7797V148.728ZM113.768 142.632H120.584V156.696C121.448 155.864 122.456 155.176 123.608 154.632C124.792 154.056 126.04 153.768 127.352 153.768C128.856 153.768 130.248 154.168 131.528 154.968C132.84 155.736 133.96 156.824 134.888 158.232C135.848 159.608 136.6 161.24 137.144 163.128C137.688 165.016 137.96 167.048 137.96 169.224C137.96 171.304 137.704 173.224 137.192 174.984C136.68 176.744 135.976 178.264 135.08 179.544C134.216 180.792 133.176 181.768 131.96 182.472C130.744 183.176 129.416 183.528 127.976 183.528C126.76 183.528 125.512 183.288 124.232 182.808C122.952 182.296 121.736 181.576 120.584 180.648V183H114.008L113.768 142.632ZM120.584 165.672C120.584 166.984 120.936 168.04 121.64 168.84C122.376 169.64 123.304 170.04 124.424 170.04C125.64 170.04 126.664 169.608 127.496 168.744C128.36 167.88 128.792 166.776 128.792 165.432C128.792 164.824 128.68 164.248 128.456 163.704C128.264 163.16 127.976 162.696 127.592 162.312C127.208 161.896 126.76 161.576 126.248 161.352C125.768 161.128 125.24 161.016 124.664 161.016C123.48 161.016 122.504 161.448 121.736 162.312C120.968 163.176 120.584 164.296 120.584 165.672ZM152.269 183V180.456C151.501 181.384 150.573 182.136 149.485 182.712C148.397 183.256 147.293 183.528 146.173 183.528C145.469 183.528 144.781 183.416 144.109 183.192C143.469 183 142.877 182.728 142.333 182.376C141.789 182.024 141.309 181.608 140.893 181.128C140.509 180.616 140.221 180.072 140.029 179.496C139.901 179.048 139.789 178.408 139.693 177.576C139.629 176.712 139.597 175.8 139.597 174.84V154.296H146.653V168.696C146.653 169.656 146.877 170.424 147.325 171C147.773 171.544 148.381 171.816 149.149 171.816C149.533 171.816 149.917 171.736 150.301 171.576C150.717 171.416 151.069 171.208 151.357 170.952C151.677 170.696 151.933 170.392 152.125 170.04C152.317 169.688 152.413 169.32 152.413 168.936V154.296H159.469C159.437 155.352 159.405 156.472 159.373 157.656C159.341 158.808 159.309 159.976 159.277 161.16C159.245 162.312 159.213 163.464 159.181 164.616C159.181 165.768 159.181 166.856 159.181 167.88C159.181 168.488 159.181 169.4 159.181 170.616C159.181 171.832 159.181 173.16 159.181 174.6C159.213 176.04 159.229 177.512 159.229 179.016C159.229 180.52 159.229 181.848 159.229 183H152.269ZM184.909 183H178.333V180.648C177.181 181.576 175.965 182.296 174.685 182.808C173.405 183.288 172.157 183.528 170.941 183.528C169.501 183.528 168.173 183.176 166.957 182.472C165.741 181.768 164.685 180.792 163.789 179.544C162.925 178.264 162.237 176.744 161.725 174.984C161.213 173.224 160.957 171.304 160.957 169.224C160.957 167.048 161.229 165.016 161.773 163.128C162.317 161.24 163.053 159.608 163.981 158.232C164.941 156.824 166.061 155.736 167.341 154.968C168.653 154.168 170.061 153.768 171.565 153.768C172.877 153.768 174.125 154.056 175.309 154.632C176.493 155.176 177.501 155.864 178.333 156.696V142.632H185.149L184.909 183ZM170.125 165.672C170.125 166.984 170.477 168.04 171.181 168.84C171.917 169.64 172.845 170.04 173.965 170.04C175.181 170.04 176.205 169.608 177.037 168.744C177.901 167.88 178.333 166.776 178.333 165.432C178.333 164.824 178.221 164.248 177.997 163.704C177.805 163.16 177.517 162.696 177.133 162.312C176.749 161.896 176.301 161.576 175.789 161.352C175.277 161.128 174.733 161.016 174.157 161.016C173.005 161.016 172.045 161.448 171.277 162.312C170.509 163.176 170.125 164.296 170.125 165.672ZM210.69 183H204.114V180.648C202.962 181.576 201.746 182.296 200.466 182.808C199.186 183.288 197.938 183.528 196.722 183.528C195.282 183.528 193.954 183.176 192.738 182.472C191.522 181.768 190.466 180.792 189.57 179.544C188.706 178.264 188.018 176.744 187.506 174.984C186.994 173.224 186.738 171.304 186.738 169.224C186.738 167.048 187.01 165.016 187.554 163.128C188.098 161.24 188.834 159.608 189.762 158.232C190.722 156.824 191.842 155.736 193.122 154.968C194.434 154.168 195.842 153.768 197.346 153.768C198.658 153.768 199.906 154.056 201.09 154.632C202.274 155.176 203.282 155.864 204.114 156.696V142.632H210.93L210.69 183ZM195.906 165.672C195.906 166.984 196.258 168.04 196.962 168.84C197.698 169.64 198.626 170.04 199.746 170.04C200.962 170.04 201.986 169.608 202.818 168.744C203.682 167.88 204.114 166.776 204.114 165.432C204.114 164.824 204.002 164.248 203.778 163.704C203.586 163.16 203.298 162.696 202.914 162.312C202.53 161.896 202.082 161.576 201.57 161.352C201.058 161.128 200.514 161.016 199.938 161.016C198.786 161.016 197.826 161.448 197.058 162.312C196.29 163.176 195.906 164.296 195.906 165.672ZM234.023 154.296L224.135 191.688H216.887L219.143 182.184L211.751 154.296H219.335L221.975 168.264C222.135 169 222.263 169.56 222.359 169.944C222.487 170.328 222.679 170.52 222.935 170.52C223.351 170.52 223.703 169.768 223.991 168.264L226.727 154.296H234.023Z" fill="black"/>
<path d="M120.338 44.8263C124.635 40.6396 124.716 33.7615 120.535 29.48C116.348 25.1869 109.485 25.0915 105.198 29.2781C100.905 33.4635 100.81 40.3271 105.001 44.6139C109.172 48.9112 116.05 48.9968 120.338 44.8263Z" fill="black"/>
<path d="M107.355 117.474C103.067 121.65 102.976 128.518 107.158 132.806C111.328 137.103 118.207 137.194 122.504 133.017C126.792 128.831 126.877 121.953 122.691 117.671C118.505 113.373 111.647 113.288 107.355 117.474Z" fill="black"/>
<path d="M125.231 78.0547L109.541 73.5599L107.172 65.884C110.324 62.2531 110.268 56.7738 106.849 53.2643L104.066 50.4114C102.819 49.1241 100.688 48.0432 99.6684 47.7853L76.6763 41.8871C74.5804 41.3417 72.3487 42.0084 70.8839 43.6085L57.0474 58.6883C54.8555 61.0818 55.0119 64.8037 57.4006 66.995C58.5268 68.0301 59.9508 68.5451 61.3746 68.5451C62.9652 68.5451 64.5461 67.899 65.7079 66.6414L77.1607 54.1481L84.8262 56.1131L68.455 72.0654C65.9408 74.2169 63.6683 77.63 65.112 81.0643L71.5812 96.4567L44.8122 110.338C41.3526 112.131 39.9996 116.393 41.7922 119.847C43.5796 123.281 47.8162 124.655 51.3007 122.862L83.8527 105.985C84.7864 105.501 85.5144 104.808 86.1249 104.026L89.6802 107.96L84.4786 127.2C83.4637 130.952 85.6901 134.83 89.4479 135.845C93.2459 136.861 97.0882 134.603 98.0933 130.876L104.299 107.924C104.921 105.612 104.335 103.142 102.724 101.364L87.8169 84.851L97.7397 75.1806L99.2498 80.063C99.8356 81.9626 101.335 83.4373 103.244 83.9823L121.994 89.3501C125.125 90.2494 128.372 88.4262 129.261 85.3208C130.155 82.1999 128.352 78.9482 125.231 78.0547Z" fill="black"/>
<path d="M195.657 72.201L188.784 52.9209C188.056 50.8806 186.264 49.4057 184.123 49.0827L160.645 45.553C159.575 45.3963 157.221 45.5685 155.576 46.2601L151.894 47.8056C147.385 49.7087 145.183 54.7339 146.683 59.3089L141.517 65.4499L125.311 63.4855C122.014 63.0968 119.156 65.3895 118.767 68.6109C118.379 71.8376 120.671 74.7622 123.893 75.1509L143.259 77.4992C145.188 77.7412 147.158 76.9937 148.471 75.4485L151.748 71.5447L157.651 85.5682L147.905 92.5323C146.965 93.2091 146.203 94.1027 145.688 95.1334L130.407 125.902C128.675 129.386 130.099 133.623 133.588 135.355C137.063 137.073 141.3 135.684 143.047 132.174L154.944 108.207L175.962 133.542C178.437 136.517 182.876 136.956 185.895 134.467C188.895 131.977 189.309 127.533 186.82 124.534L167.564 101.324L179.518 89.6595C182.123 87.119 181.457 83.4376 180.042 80.3013L171.079 59.0119L178.896 60.1829L184.588 76.1456C185.683 79.2263 189.072 80.8015 192.097 79.706C195.152 78.62 196.747 75.2567 195.657 72.201Z" fill="black"/>
<path d="M156.969 39.7558C162.494 37.4385 165.08 31.0804 162.757 25.5512C160.434 20.0365 154.075 17.4351 148.557 19.7638C143.032 22.0862 140.431 28.4493 142.754 33.9789C145.087 39.4929 151.45 42.094 156.969 39.7558Z" fill="black"/>
</svg>
