<svg width="110" height="110" viewBox="0 0 110 110" fill="none" xmlns="http://www.w3.org/2000/svg">
<circle cx="55" cy="55" r="52.5" fill="#FFEA00" stroke="url(#paint0_linear)" stroke-width="5"/>
<path d="M78.1472 28.7694C71.9731 23.3147 63.8665 20 55 20C43.8288 20 33.8647 25.262 27.4523 33.4366C27.2821 33.6536 27.3619 33.9759 27.6139 34.0878C33.4178 36.6604 41.2155 38.1146 49.4167 38.1146C63.7041 38.1146 74.28 33.8842 78.1854 29.3711C78.3388 29.1937 78.3229 28.9247 78.1472 28.7694Z" fill="black"/>
<path d="M86.5161 68.7855C86.514 68.7856 86.5116 68.7856 86.5094 68.7856C75.9556 68.7856 65.9476 71.6155 58.3292 76.7544C53.2209 80.1998 49.6923 84.4249 48.1377 88.8197C48.0502 89.0673 48.1993 89.3377 48.4573 89.3867C50.5774 89.7892 52.7644 90 54.9999 90C69.1742 90 81.406 81.5296 86.9036 69.3855C87.0303 69.1057 86.8233 68.7857 86.5161 68.7855Z" fill="black"/>
<path d="M82.9564 33.9673C82.7993 33.7589 82.4896 33.7402 82.3101 33.9295C76.3704 40.1897 63.747 44.2373 49.4167 44.2373C39.9746 44.2373 30.9024 42.4344 24.2116 39.261C24.0015 39.1615 23.7498 39.2453 23.6462 39.4535C21.3129 44.1394 20 49.4195 20 55.0001C20 69.59 28.9739 82.1232 41.6918 87.3708C41.9204 87.4652 42.1785 87.3423 42.2577 87.1079C44.2015 81.3508 48.5776 75.9469 54.9057 71.6788C63.5248 65.8651 74.7487 62.6633 86.5096 62.6633C87.27 62.6633 88.0285 62.6779 88.7855 62.7035C88.9914 62.7105 89.1744 62.5705 89.2178 62.3688C89.7292 59.9924 90 57.5274 90 55.0001C90 47.1121 87.3757 39.8266 82.9564 33.9673Z" fill="black"/>
<defs>
<linearGradient id="paint0_linear" x1="5" y1="5" x2="105" y2="105" gradientUnits="userSpaceOnUse">
<stop stop-color="#FF4D00"/>
<stop offset="1" stop-color="#EE0930"/>
</linearGradient>
</defs>
</svg>
