<svg width="110" height="110" viewBox="0 0 110 110" fill="none" xmlns="http://www.w3.org/2000/svg">
<circle cx="55" cy="55" r="52.5" fill="#AA00FF" stroke="url(#paint0_linear)" stroke-width="5"/>
<g clip-path="url(#clip0)">
<path d="M85 64.6429V67.8571H64.8014C67.1375 66.7834 69.2828 65.3358 71.1528 63.5714H83.9285C84.5203 63.5714 85 64.0511 85 64.6429V64.6429Z" fill="black"/>
<path d="M30.3572 70H34.6429V74.2857H30.3572V70Z" fill="black"/>
<path d="M36.7858 70H41.0715V74.2857H36.7858V70Z" fill="black"/>
<path d="M43.2142 70H47.5V74.2857H43.2142V70Z" fill="black"/>
<path d="M34.8774 39.132C35.4525 37.5373 36.2146 36.0163 37.1478 34.601C38.9982 34.3438 54.8842 32.5106 62.8824 43.601C60.5929 45.0126 58.042 45.9474 55.3824 46.3492C50.0214 40.9175 42.4587 38.2557 34.8774 39.132V39.132Z" fill="black"/>
<path d="M73.1178 35.0393C74.0211 36.467 74.7512 37.997 75.2928 39.5972C70.6986 49.3804 59.4475 54.1204 55.1971 55.6054C54.7686 52.2486 55.0546 51.4204 55.8571 48.4461C63.4922 47.1484 69.9713 42.1159 73.1178 35.0393V35.0393Z" fill="black"/>
<path d="M76.4285 46.4286C76.4207 47.5972 76.3172 48.7633 76.1189 49.915C71.3075 55.954 64.8497 60.47 57.5264 62.9168C56.6566 61.2821 56.0036 59.541 55.5839 57.7375C59.5149 56.3982 70.4939 51.9518 76.0771 42.67C76.3047 43.9101 76.4223 45.1678 76.4285 46.4286V46.4286Z" fill="black"/>
<path d="M60.4471 67.1285C59.7992 66.3952 59.2028 65.618 58.6621 64.8024C64.7824 62.7237 70.3193 59.2165 74.8139 54.5714C72.2465 60.7694 66.9329 65.4136 60.4471 67.1285Z" fill="black"/>
<path d="M68.9286 70H73.2143V74.2857H68.9286V70Z" fill="black"/>
<path d="M75.3572 76.4286H79.6429V79.6428H75.3572V76.4286Z" fill="black"/>
<path d="M68.9286 76.4286H73.2143V79.6428H68.9286V76.4286Z" fill="black"/>
<path d="M30.3572 76.4286H34.6429V79.6428H30.3572V76.4286Z" fill="black"/>
<path d="M36.7858 76.4286H41.0715V79.6428H36.7858V76.4286Z" fill="black"/>
<path d="M43.2142 76.4286H47.5V79.6428H43.2142V76.4286Z" fill="black"/>
<path d="M49.6428 76.4286H53.9285V79.6428H49.6428V76.4286Z" fill="black"/>
<path d="M47.6436 43.3953C49.938 44.5004 52.0237 45.9942 53.8086 47.8107C52.7249 50.8667 52.5445 54.1702 53.289 57.326V57.341C53.7909 59.9397 54.7319 62.434 56.0715 64.7167C56.6628 65.7311 57.3315 66.6982 58.0718 67.6096C55.6285 67.9938 53.1358 67.9325 50.7143 67.4285C46.9855 60.0004 45.9022 51.5224 47.6436 43.3953V43.3953Z" fill="black"/>
<path d="M56.0714 70H60.3571V74.2857H56.0714V70Z" fill="black"/>
<path d="M49.6428 70H53.9285V74.2857H49.6428V70Z" fill="black"/>
<path d="M56.0714 76.4286H60.3571V79.6428H56.0714V76.4286Z" fill="black"/>
<path d="M62.5 76.4286H66.7857V79.6428H62.5V76.4286Z" fill="black"/>
<path d="M62.5 70H66.7857V74.2857H62.5V70Z" fill="black"/>
<path d="M40.164 61.8571C37.1694 51.4643 38.4026 44.6435 39.6283 41.1582C41.6851 41.3407 43.7073 41.8032 45.639 42.5328C43.8069 50.6157 44.6271 59.0736 47.9779 66.6539C45.058 65.6368 42.3925 64.0005 40.164 61.8571V61.8571Z" fill="black"/>
<path d="M30.3572 81.7857H34.6429V85H30.3572V81.7857Z" fill="black"/>
<path d="M36.7858 81.7857H41.0715V85H36.7858V81.7857Z" fill="black"/>
<path d="M43.2142 81.7857H47.5V85H43.2142V81.7857Z" fill="black"/>
<path d="M49.6428 81.7857H53.9285V85H49.6428V81.7857Z" fill="black"/>
<path d="M56.0714 81.7857H60.3571V85H56.0714V81.7857Z" fill="black"/>
<path d="M62.5 81.7857H66.7857V85H62.5V81.7857Z" fill="black"/>
<path d="M68.9286 81.7857H73.2143V85H68.9286V81.7857Z" fill="black"/>
<path d="M75.3572 81.7857H79.6429V85H75.3572V81.7857Z" fill="black"/>
<path d="M75.3572 70H79.6429V74.2857H75.3572V70Z" fill="black"/>
<path d="M71.6661 32.9885C71.3237 33.8495 70.9301 34.6892 70.4875 35.5032C65.3029 29.6125 57.9791 26.0382 50.1454 25.5753C58.1491 23.6743 66.5311 26.5617 71.6661 32.9885V32.9885Z" fill="black"/>
<path d="M44.349 27.8606C53.7538 26.6027 63.1545 30.2028 69.3133 37.421C68.0274 39.3089 66.4511 40.9817 64.6429 42.3774C57.2993 32.126 44.3051 31.8774 38.9736 32.2556C40.5161 30.5098 42.3315 29.0255 44.349 27.8606V27.8606Z" fill="black"/>
<path d="M34.1961 41.3843C35.2538 41.2067 36.3231 41.1068 37.3954 41.0853C36.3368 44.4282 35.4358 50.0714 37.0333 58.0664C33.803 53.1445 32.7745 47.0973 34.1961 41.3843V41.3843Z" fill="black"/>
<path d="M25 64.6429C25 64.0511 25.4797 63.5714 26.0714 63.5714H38.8471C40.7172 65.3358 42.8625 66.7834 45.1986 67.8571H25V64.6429Z" fill="black"/>
<path d="M25 70H28.2143V85H25V70Z" fill="black"/>
<path d="M81.7858 70H85V85H81.7858V70Z" fill="black"/>
</g>
<defs>
<linearGradient id="paint0_linear" x1="5" y1="5" x2="105" y2="105" gradientUnits="userSpaceOnUse">
<stop stop-color="#FF4D00"/>
<stop offset="1" stop-color="#EE0930"/>
</linearGradient>
<clipPath id="clip0">
<rect width="60" height="60" fill="white" transform="translate(25 25)"/>
</clipPath>
</defs>
</svg>
