<svg width="110" height="110" viewBox="0 0 110 110" fill="none" xmlns="http://www.w3.org/2000/svg">
<circle cx="55" cy="55" r="52.5" fill="#76FF03" stroke="url(#paint0_linear)" stroke-width="5"/>
<path d="M61.6647 47.9609H48.3689C47.6978 47.9609 47.1536 48.5051 47.1536 49.1762V60.1483C47.1538 60.8195 47.6978 61.3636 48.3689 61.3636H61.6647C62.3359 61.3636 62.88 60.8195 62.88 60.1483V49.1762C62.8799 48.5051 62.3359 47.9609 61.6647 47.9609Z" fill="black"/>
<path d="M85.4785 44.2822H81.4594V36.9941C81.4594 33.8104 78.8691 31.2199 75.6852 31.2199H73.6693C70.4852 31.2199 67.8948 33.8102 67.8948 36.9941V46.3547H67.9039V66.447H67.8948V72.838C67.8948 76.0221 70.4854 78.6124 73.6692 78.6124H75.6851C78.8691 78.6124 81.4593 76.0221 81.4593 72.838V65.3827H85.4784C87.9716 65.3827 89.9999 63.3544 89.9999 60.8612V48.8038C90.0001 46.3106 87.9717 44.2822 85.4785 44.2822Z" fill="black"/>
<path d="M42.1053 47.9611V37.1616C42.1053 33.9779 39.515 31.3875 36.3311 31.3875H34.315C31.1313 31.3875 28.5407 33.9777 28.5407 37.1616V44.6172H24.5216C22.0284 44.6172 20 46.6456 20 49.1388V61.1962C20 63.6894 22.0284 65.7177 24.5216 65.7177H28.5407V73.0057C28.5407 76.1897 31.1313 78.78 34.315 78.78H36.3311C39.5151 78.78 42.1053 76.1897 42.1053 73.0057V61.3638H42.1298V47.9612H42.1053V47.9611Z" fill="black"/>
<defs>
<linearGradient id="paint0_linear" x1="5" y1="5" x2="105" y2="105" gradientUnits="userSpaceOnUse">
<stop stop-color="#FF4D00"/>
<stop offset="1" stop-color="#EE0930"/>
</linearGradient>
</defs>
</svg>
